
<svg version="1.0" xmlns="http://www.w3.org/2000/svg"
 height="622px" viewBox="0 0 560.000000 1185.000000"
 preserveAspectRatio="xMidYMid meet">

<g transform="translate(0.000000,1185.000000) scale(0.100000,-0.100000)"
fill="#000000" stroke="none">
<path d="M1299 11693 c-282 -286 -490 -558 -690 -906 -369 -639 -578 -1429
-579 -2184 l0 -133 115 0 c143 0 2566 47 2806 54 l176 6 11 -103 c18 -165 75
-304 173 -425 172 -213 460 -320 719 -268 359 73 602 357 627 732 l6 91 276 6
c152 4 342 7 422 7 191 0 209 4 209 42 l0 30 -460 -7 c-388 -7 -460 -6 -464 6
-55 191 -100 279 -193 380 -100 107 -221 181 -360 221 -101 28 -285 30 -382 4
-279 -76 -483 -285 -556 -571 l-20 -80 -1345 -27 c-740 -15 -1417 -26 -1505
-25 l-160 2 50 29 c77 45 741 434 1370 804 314 184 671 394 795 467 124 73
396 232 605 355 209 123 466 273 570 335 105 62 465 273 800 470 336 197 752
441 925 543 173 102 318 188 321 191 4 3 10 23 13 44 l7 37 -2078 0 -2078 0
-126 -127z"/>
<path d="M2567 6523 c-4 -3 -7 -246 -7 -540 l0 -533 535 0 535 0 -2 538 -3
537 -526 3 c-289 1 -529 -1 -532 -5z m793 -533 l0 -270 -265 0 -265 0 0 270 0
270 265 0 265 0 0 -270z"/>
<path d="M1767 3083 c-4 -3 -7 -179 -7 -390 l0 -383 383 2 382 3 3 365 c1 201
0 375 -3 388 l-5 22 -374 0 c-205 0 -376 -3 -379 -7z"/>
<path d="M3765 1427 c-3 -7 -4 -129 -3 -272 l3 -260 268 -3 267 -2 0 275 0
275 -265 0 c-205 0 -267 -3 -270 -13z"/>
<path d="M2130 205 l0 -185 185 0 185 0 0 185 0 185 -185 0 -185 0 0 -185z"/>
</g>
</svg>
