<?xml version="1.0" standalone="no"?>
<!DOCTYPE svg PUBLIC "-//W3C//DTD SVG 20010904//EN"
 "http://www.w3.org/TR/2001/REC-SVG-20010904/DTD/svg10.dtd">
<svg version="1.0" xmlns="http://www.w3.org/2000/svg"
  height="400px" viewBox="0 0 560.000000 553.000000" 
 preserveAspectRatio="xMidYMid meet">

<g transform="translate(0.000000,553.000000) scale(0.100000,-0.100000)"
fill="#000000" stroke="none" color="yellow">
<path d="M30 4088 c0 -788 4 -1428 8 -1422 5 5 43 54 85 109 295 390 751 675
1259 789 133 30 341 56 447 56 l74 0 -7 103 c-10 149 -24 225 -68 382 -120
426 -406 808 -803 1073 -285 190 -694 342 -921 342 l-74 0 0 -1432z"/>
<path d="M2455 3186 c-40 -17 -55 -37 -62 -80 -5 -31 -1 -40 31 -72 35 -35 39
-36 88 -32 40 4 57 11 75 32 45 53 23 131 -44 157 -32 12 -52 11 -88 -5z"/>
<path d="M3274 3186 c-78 -35 -85 -127 -14 -169 51 -31 135 -13 160 32 45 86
-54 179 -146 137z"/>
<path d="M4094 3186 c-59 -26 -78 -79 -50 -135 26 -49 98 -66 156 -36 115 59
13 224 -106 171z"/>
<path d="M4903 3181 c-71 -45 -73 -130 -3 -166 110 -57 223 57 143 145 -37 40
-95 49 -140 21z"/>
<path d="M1640 2083 c-50 -18 -79 -78 -61 -126 13 -33 66 -67 104 -67 35 0 83
24 97 49 13 25 13 77 0 102 -21 37 -93 59 -140 42z"/>
<path d="M2454 2080 c-12 -4 -31 -21 -43 -36 -77 -98 85 -209 175 -119 26 26
32 81 14 116 -22 40 -95 60 -146 39z"/>
<path d="M3244 2056 c-42 -42 -45 -82 -9 -124 62 -74 195 -36 195 55 0 45 -14
69 -50 88 -50 26 -97 20 -136 -19z"/>
<path d="M4081 2076 c-56 -31 -66 -99 -22 -148 26 -29 36 -33 80 -33 41 0 55
5 80 29 88 84 -29 212 -138 152z"/>
<path d="M4901 2076 c-56 -31 -66 -99 -22 -148 26 -29 35 -33 81 -33 46 0 55
4 81 33 31 34 36 66 18 105 -23 50 -105 72 -158 43z"/>
<path d="M892 1964 c-88 -51 -90 -53 -72 -64 23 -15 67 -12 101 6 31 16 67 81
52 94 -4 3 -41 -13 -81 -36z"/>
<path d="M796 959 c-38 -30 -49 -64 -36 -105 14 -43 49 -64 105 -64 75 0 120
47 108 114 -13 68 -119 101 -177 55z"/>
<path d="M1612 955 c-78 -65 -33 -164 74 -165 67 0 104 33 104 92 0 88 -108
132 -178 73z"/>
<path d="M2439 965 c-55 -30 -62 -116 -12 -155 39 -30 113 -27 152 6 68 57 22
164 -71 164 -24 -1 -55 -7 -69 -15z"/>
<path d="M3259 965 c-33 -18 -53 -64 -44 -104 10 -46 48 -71 107 -71 41 0 54
5 79 29 63 63 18 161 -73 161 -24 -1 -55 -7 -69 -15z"/>
<path d="M4077 964 c-54 -29 -62 -100 -18 -145 25 -25 37 -29 81 -29 44 0 56
4 81 29 63 63 18 161 -73 161 -24 -1 -56 -8 -71 -16z"/>
<path d="M4879 951 c-21 -22 -29 -39 -29 -66 0 -27 8 -44 29 -66 25 -25 37
-29 81 -29 44 0 56 4 81 29 68 69 16 161 -91 161 -33 0 -48 -6 -71 -29z"/>
</g>
</svg>
